<?xml version="1.0" encoding="UTF-8"?>
<svg version="1.1" xmlns="http://www.w3.org/2000/svg" width="512" height="512">
<path d="M0 0 C0.69077547 -0.00205263 1.38155094 -0.00410527 2.09325901 -0.0062201 C4.41911548 -0.01189622 6.74491284 -0.0104321 9.07077503 -0.00901413 C10.75073226 -0.01159742 12.43068888 -0.01461048 14.11064464 -0.01801753 C18.73607691 -0.0260951 23.36149367 -0.02787752 27.98693216 -0.028615 C32.97208821 -0.03046424 37.95723619 -0.03801094 42.94238758 -0.04475021 C53.84736481 -0.05833956 64.75233836 -0.06435923 75.65732265 -0.06876087 C82.46501001 -0.07152235 89.27269595 -0.07575953 96.08038235 -0.08026505 C114.92460732 -0.09245863 133.76883116 -0.10275768 152.61306 -0.10614014 C153.81944085 -0.1063597 155.02582169 -0.10657927 156.26875954 -0.10680549 C158.08269041 -0.10713291 158.08269041 -0.10713291 159.93326634 -0.10746694 C162.38379109 -0.1079104 164.83431584 -0.10835697 167.28484058 -0.10880661 C169.10816262 -0.10913875 169.10816262 -0.10913875 170.96831945 -0.10947761 C190.66550827 -0.1134258 210.3626601 -0.13088007 230.05983462 -0.15416613 C250.27705805 -0.17787429 270.49426291 -0.19034175 290.71150047 -0.19150805 C302.06495923 -0.19242513 313.4183698 -0.19818561 324.7718153 -0.21632767 C334.43952009 -0.23172143 344.10716179 -0.23685339 353.7748765 -0.22858956 C358.70759086 -0.22468048 363.64017816 -0.22562535 368.57287693 -0.23964691 C373.09014497 -0.25237016 377.60719027 -0.25120213 382.12445793 -0.2390562 C383.75706048 -0.23709647 385.38967871 -0.24019037 387.0222592 -0.24890056 C397.77258732 -0.30261628 407.40738616 -0.29020501 415.65715504 7.38533401 C420.4819009 12.98705193 422.51704737 19.66883964 422.36809254 26.99470901 C421.29916169 38.02688212 412.71448604 45.76614784 405.21428394 53.11067581 C401.92804181 56.3308316 398.88683536 59.67298447 395.90324879 63.17049026 C393.19061885 66.22371948 390.25505676 69.04545926 387.34856129 71.91267776 C385.36385787 73.92573409 383.50009212 75.98589179 381.66106129 78.13142776 C378.40941501 81.92501509 374.90393034 85.40535424 371.34856129 88.91267776 C369.36385787 90.92573409 367.50009212 92.98589179 365.66106129 95.13142776 C362.40941501 98.92501509 358.90393034 102.40535424 355.34856129 105.91267776 C353.36385787 107.92573409 351.50009212 109.98589179 349.66106129 112.13142776 C346.40941501 115.92501509 342.90393034 119.40535424 339.34856129 122.91267776 C337.36385787 124.92573409 335.50009212 126.98589179 333.66106129 129.13142776 C330.40941501 132.92501509 326.90393034 136.40535424 323.34856129 139.91267776 C321.36385787 141.92573409 319.50009212 143.98589179 317.66106129 146.13142776 C314.40941501 149.92501509 310.90393034 153.40535424 307.34856129 156.91267776 C305.36385787 158.92573409 303.50009212 160.98589179 301.66106129 163.13142776 C298.40941501 166.92501509 294.90393034 170.40535424 291.34856129 173.91267776 C289.36385787 175.92573409 287.50009212 177.98589179 285.66106129 180.13142776 C282.40941501 183.92501509 278.90393034 187.40535424 275.34856129 190.91267776 C273.36385787 192.92573409 271.50009212 194.98589179 269.66106129 197.13142776 C266.40941501 200.92501509 262.90393034 204.40535424 259.34856129 207.91267776 C257.36385787 209.92573409 255.50009212 211.98589179 253.66106129 214.13142776 C250.40941501 217.92501509 246.90393034 221.40535424 243.34856129 224.91267776 C240.76164111 227.53655395 238.37722857 230.2953441 235.98137379 233.09236526 C233.19812762 236.21007879 230.20141232 239.10341882 227.21965504 242.02986526 C225.53051734 243.75426011 224.05676389 245.46661627 222.59856129 247.38142776 C215.92746185 254.90779636 207.0521898 257.46630035 197.28606129 258.56892776 C185.73833598 257.99984069 176.66697238 252.94059042 168.89153004 244.73689651 C167.36335478 243.0421059 165.85020571 241.33364423 164.35246754 239.61189651 C162.32248898 237.31414895 160.22427341 235.15247781 158.03606129 233.00642776 C155.4777738 230.48850773 153.0608647 227.91809519 150.72356129 225.19392776 C148.15440858 222.20341061 145.46788872 219.40026092 142.66106129 216.63142776 C139.25387339 213.27028295 136.08647954 209.79441573 132.97356129 206.16267776 C130.95013249 203.89504204 128.82452782 201.76565826 126.66106129 199.63142776 C123.25387339 196.27028295 120.08647954 192.79441573 116.97356129 189.16267776 C114.95013249 186.89504204 112.82452782 184.76565826 110.66106129 182.63142776 C107.25387339 179.27028295 104.08647954 175.79441573 100.97356129 172.16267776 C98.95013249 169.89504204 96.82452782 167.76565826 94.66106129 165.63142776 C91.25387339 162.27028295 88.08647954 158.79441573 84.97356129 155.16267776 C82.95013249 152.89504204 80.82452782 150.76565826 78.66106129 148.63142776 C75.25387339 145.27028295 72.08647954 141.79441573 68.97356129 138.16267776 C66.95013249 135.89504204 64.82452782 133.76565826 62.66106129 131.63142776 C59.25387339 128.27028295 56.08647954 124.79441573 52.97356129 121.16267776 C50.95013249 118.89504204 48.82452782 116.76565826 46.66106129 114.63142776 C43.25387339 111.27028295 40.08647954 107.79441573 36.97356129 104.16267776 C34.95013249 101.89504204 32.82452782 99.76565826 30.66106129 97.63142776 C27.25387339 94.27028295 24.08647954 90.79441573 20.97356129 87.16267776 C18.95013249 84.89504204 16.82452782 82.76565826 14.66106129 80.63142776 C11.25387339 77.27028295 8.08647954 73.79441573 4.97356129 70.16267776 C2.23329046 67.09168459 -0.71840773 64.243559 -3.64753246 61.35408401 C-6.25819118 58.70619666 -8.66944874 55.92489748 -11.08503246 53.10017776 C-12.9621914 50.99307732 -14.94058414 49.03555277 -16.96393871 47.06892776 C-23.6312961 40.45325532 -27.37352531 34.90255394 -28.15143871 25.25642776 C-27.91444596 18.04905992 -25.49809604 11.91595846 -20.58503246 6.63533401 C-14.47746139 1.37489808 -7.86085407 0.00794684 0 0 Z " fill="#000000" transform="translate(58.83893871307373,126.86857223510742)"/>
</svg>
